<svg width="668" height="668" viewBox="0 0 668 668" fill="none" xmlns="http://www.w3.org/2000/svg">
<path d="M239.105 114.279C281.327 38.5377 302.437 0.666748 334 0.666748C365.563 0.666748 386.673 38.5374 428.893 114.279L439.817 133.874C451.817 155.398 457.813 166.16 467.17 173.26C476.523 180.361 488.17 182.997 511.47 188.268L532.683 193.068C614.67 211.619 655.667 220.894 665.42 252.258C675.173 283.62 647.227 316.303 591.33 381.663L576.87 398.573C560.987 417.147 553.043 426.433 549.47 437.923C545.9 449.413 547.1 461.803 549.5 486.587L551.687 509.147C560.137 596.353 564.363 639.957 538.83 659.34C513.293 678.723 474.91 661.05 398.143 625.707L378.283 616.56C356.47 606.517 345.563 601.493 334 601.493C322.437 601.493 311.53 606.517 289.717 616.56L269.857 625.707C193.089 661.05 154.706 678.723 129.172 659.34C103.637 639.957 107.863 596.353 116.313 509.147L118.499 486.587C120.901 461.803 122.102 449.413 118.529 437.923C114.956 426.433 107.014 417.147 91.1307 398.573L76.67 381.663C20.775 316.303 -7.17264 283.62 2.58069 252.258C12.334 220.894 53.3287 211.619 135.318 193.068L156.53 188.268C179.828 182.997 191.478 180.361 200.831 173.26C210.185 166.16 216.184 155.398 228.182 133.874L239.105 114.279Z" fill="#F2E452"/>
</svg>
